<mxfile host="Electron" modified="2024-01-12T08:21:39.633Z" agent="Mozilla/5.0 (Windows NT 10.0; Win64; x64) AppleWebKit/537.36 (KHTML, like Gecko) draw.io/22.1.2 Chrome/114.0.5735.289 Electron/25.9.4 Safari/537.36" etag="Jo3rQkVxDQ_HBzt0FTwt" version="22.1.2" type="device">
  <diagram name="페이지-1" id="L6Q7aNaDaRqBjgQt6AqM">
    <mxGraphModel dx="1195" dy="697" grid="1" gridSize="10" guides="1" tooltips="1" connect="1" arrows="1" fold="1" page="1" pageScale="1" pageWidth="827" pageHeight="1169" math="0" shadow="0">
      <root>
        <mxCell id="0" />
        <mxCell id="1" parent="0" />
        <mxCell id="8NophFoFHsndogoybagu-16" value="&amp;nbsp; Application" style="rounded=0;whiteSpace=wrap;html=1;fontFamily=a고딕14;align=left;verticalAlign=top;" vertex="1" parent="1">
          <mxGeometry x="40" y="280" width="250" height="250" as="geometry" />
        </mxCell>
        <mxCell id="8NophFoFHsndogoybagu-1" value="scope" style="rounded=0;whiteSpace=wrap;html=1;fontFamily=a고딕14;" vertex="1" parent="1">
          <mxGeometry x="40" y="40" width="120" height="100" as="geometry" />
        </mxCell>
        <mxCell id="8NophFoFHsndogoybagu-2" value="객체가 서버의 메모리에서 유지되는 시간" style="rounded=0;whiteSpace=wrap;html=1;fontFamily=a고딕14;" vertex="1" parent="1">
          <mxGeometry x="40" y="140" width="120" height="60" as="geometry" />
        </mxCell>
        <mxCell id="8NophFoFHsndogoybagu-3" value="page" style="rounded=0;whiteSpace=wrap;html=1;fontFamily=a고딕14;" vertex="1" parent="1">
          <mxGeometry x="160" y="40" width="120" height="40" as="geometry" />
        </mxCell>
        <mxCell id="8NophFoFHsndogoybagu-4" value="request" style="rounded=0;whiteSpace=wrap;html=1;fontFamily=a고딕14;" vertex="1" parent="1">
          <mxGeometry x="160" y="80" width="120" height="40" as="geometry" />
        </mxCell>
        <mxCell id="8NophFoFHsndogoybagu-5" value="session" style="rounded=0;whiteSpace=wrap;html=1;fontFamily=a고딕14;" vertex="1" parent="1">
          <mxGeometry x="160" y="120" width="120" height="40" as="geometry" />
        </mxCell>
        <mxCell id="8NophFoFHsndogoybagu-6" value="application" style="rounded=0;whiteSpace=wrap;html=1;fontFamily=a고딕14;" vertex="1" parent="1">
          <mxGeometry x="160" y="160" width="120" height="40" as="geometry" />
        </mxCell>
        <mxCell id="8NophFoFHsndogoybagu-7" value="&amp;nbsp; &amp;nbsp; 한페이지를 표시하는 메서드나 Servlet이 작동하는동안 유지되는 객체" style="rounded=0;whiteSpace=wrap;html=1;fontFamily=a고딕14;align=left;" vertex="1" parent="1">
          <mxGeometry x="280" y="40" width="400" height="40" as="geometry" />
        </mxCell>
        <mxCell id="8NophFoFHsndogoybagu-8" value="&amp;nbsp; &amp;nbsp; User의 요청을 담는 Request 객체를 담고 Response를 만드는 순간 사라짐" style="rounded=0;whiteSpace=wrap;html=1;fontFamily=a고딕14;align=left;" vertex="1" parent="1">
          <mxGeometry x="280" y="80" width="400" height="40" as="geometry" />
        </mxCell>
        <mxCell id="8NophFoFHsndogoybagu-9" value="&amp;nbsp; &amp;nbsp; 서버가 켜지고 종료될때까지 유지" style="rounded=0;whiteSpace=wrap;html=1;fontFamily=a고딕14;align=left;" vertex="1" parent="1">
          <mxGeometry x="280" y="160" width="400" height="40" as="geometry" />
        </mxCell>
        <mxCell id="8NophFoFHsndogoybagu-10" value="&amp;nbsp; &amp;nbsp; Client가 접속을 종료할때까지 유지" style="rounded=0;whiteSpace=wrap;html=1;fontFamily=a고딕14;align=left;" vertex="1" parent="1">
          <mxGeometry x="280" y="120" width="400" height="40" as="geometry" />
        </mxCell>
        <mxCell id="8NophFoFHsndogoybagu-11" value="session 과 cookie 차이점" style="rounded=0;whiteSpace=wrap;html=1;fontFamily=a고딕14;" vertex="1" parent="1">
          <mxGeometry x="40" y="220" width="160" height="40" as="geometry" />
        </mxCell>
        <mxCell id="8NophFoFHsndogoybagu-12" value="&amp;nbsp; &amp;nbsp; session : 서버에서 저장 관리 , cookie : Client가 저장 관리" style="rounded=0;whiteSpace=wrap;html=1;fontFamily=a고딕14;align=left;" vertex="1" parent="1">
          <mxGeometry x="200" y="220" width="480" height="40" as="geometry" />
        </mxCell>
        <mxCell id="8NophFoFHsndogoybagu-13" value="&amp;nbsp; &amp;nbsp;Session" style="rounded=0;whiteSpace=wrap;html=1;fontFamily=a고딕14;align=left;verticalAlign=top;" vertex="1" parent="1">
          <mxGeometry x="70" y="310" width="190" height="190" as="geometry" />
        </mxCell>
        <mxCell id="8NophFoFHsndogoybagu-14" value="&amp;nbsp; Request" style="rounded=0;whiteSpace=wrap;html=1;fontFamily=a고딕14;align=left;verticalAlign=top;" vertex="1" parent="1">
          <mxGeometry x="100" y="340" width="130" height="130" as="geometry" />
        </mxCell>
        <mxCell id="8NophFoFHsndogoybagu-15" value="&amp;nbsp; &amp;nbsp;Page" style="rounded=0;whiteSpace=wrap;html=1;fontFamily=a고딕14;align=left;verticalAlign=top;" vertex="1" parent="1">
          <mxGeometry x="130" y="370" width="70" height="70" as="geometry" />
        </mxCell>
      </root>
    </mxGraphModel>
  </diagram>
</mxfile>
